<svg xmlns="http://www.w3.org/2000/svg" viewBox="0 0 1406.565 1417.805"><path d="M879.397 864.628c-31.494 10.223-65.577 7.85-98.245 13.252A209.55 209.55 0 00678.9 925.82a664.888 664.888 0 0142.077-55.853c-8.121 3.327-16.38 6.4-24.247 10.272a130.621 130.621 0 00-63.708 69.983 139.855 139.855 0 0115.078-56.355c-15.613 14.836-24.453 35.279-32.3 55.337s-15.367 40.778-29.167 57.315c-13.769 16.5-35.486 28.243-56.518 23.89a61.571 61.571 0 01-5.974 1.664c-26.246 5.881-53.162-6.303-80.053-5.75-21.425.44-41.76 8.915-62.696 13.49q-1.059.232-2.128.446a18.606 18.606 0 0010.483 10.35c11.606 4.207 23.913-3.602 36.219-4.589 16.93-1.359 33.628 12.544 35.36 29.44-8.095-8.723-20.492-12.626-32.385-12.223a57.626 57.626 0 00-7.594.784l4.418 38.348c.554 4.81 1.235 9.924 4.353 13.628 14.714 17.477 55.77-13.3 85.924-14.106 24.17-.646 51.175 13.378 70.753-.809 27.938-20.243 12.749-96.724 80.383-156.564 71.008-62.825 185.941-37.471 267.454-85.895 144.147-85.633 135.76-329.005-3.7-409.08a125.016 125.016 0 00-5.909 6.739c145.328 103.03 127.02 352.301-45.626 408.346zM549.78 569.863c.686.06 1.372.135 2.058.221 3.128-1.164 6.454-2.049 9.562-2.99A82.699 82.699 0 00607.16 532c11.006-17.686 14.864-38.82 23.397-57.822a126.932 126.932 0 0132.505-43.731 146.115 146.115 0 00-46.992 50.882 136.5 136.5 0 0123.395-45.412c9.678-12.356 21.418-22.946 31.546-34.935s18.835-25.951 20.721-41.533-4.485-32.923-18.316-40.342c-14.724-7.898-33.152-2.784-47.456 5.977-22.087 22.899-37.858 52.606-50.428 82.254-11.567 27.282-21.337 55.521-36.668 80.88-25.342 41.919-66.869 74.929-114.774 85.1a33.163 33.163 0 005.684 9.312 86.193 86.193 0 0013.26 13.027c12.502-9.392 28.921-13.18 45.626-6.978a166.23 166.23 0 0125.678-7.408 48.873 48.873 0 0135.442-11.408z" fill="#e8a238"/><path d="M1017.076 330.49c46.842 12.978 87.403 44.54 117.81 82.673 32.232 40.424 54.136 88.032 73.14 136.114a292.801 292.801 0 00-129.623-124.637c56.558 62.82 72.232 152.35 73.826 236.863 1.38 73.258-7.28 150.291-48.938 210.568-49.682 71.888-136.984 107.417-198.772 169.21a312.165 312.165 0 00-58.817 81.907 371.356 371.356 0 017.042-115.002 622.111 622.111 0 00-143.372 238.031 422.356 422.356 0 0111.979-113.03 243.896 243.896 0 00-51.8 160.28 265.72 265.72 0 01-70.095-144.763 74.592 74.592 0 01-12.362 1.214c-1.155 35.384 9.319 71.16 25.686 102.875 20.562 39.845 49.91 74.36 78.995 108.487 27.327-85.11 102.72-145.135 178.7-192.225 75.98-47.09 158.434-88.259 216.18-156.492 36.436-43.051 61.406-95.719 76.172-144.912 9.27 62.294-17.427 123.388-58.435 172.695l-3.903 33.25c15.18-25.246 37.79-44.963 58.126-66.276C1259.24 901.86 1305.98 745.9 1274.365 603.603c-29.7-133.683-129.668-250.472-257.745-297.786a117.487 117.487 0 01.456 24.673z" fill="#e8a238"/><path d="M1063.067 1082.239c-1.172 1.007-2.358 1.995-3.54 2.99q4.336-3.143 8.427-6.42c.053-.33.102-.66.156-.99q-2.507 2.236-5.043 4.42zM728.595 628.782a70.682 70.682 0 0127.038-.523c20.292 3.875 37.37 18.848 47.094 37.075a89.396 89.396 0 017.054 65.694 139.125 139.125 0 0010.183-64.238 112.146 112.146 0 019.88 84.15c-1.771 6.27-4.123 12.586-3.676 19.087.995 14.468 16.322 24.794 30.823 24.626 14.5-.167 27.745-8.255 38.797-17.644a156.001 156.001 0 0053.733-103.586c1.485-16.384.34-32.894-1.4-49.253-4.558-42.825-13.921-86.854-39.978-121.144-.549-.722-1.106-1.451-1.641-2.194a52.692 52.692 0 00.054 3.408 96.337 96.337 0 01-2.047-6.664 11.649 11.649 0 01-.942-2.662 10.704 10.704 0 01-.205-2.03c-7.771-35.772 4.836-74.434 31.054-100.11 6.902-6.759 14.672-12.687 20.735-20.207 22.168-27.495 16.023-67.895 4.24-101.19s-28.336-67.174-23.333-102.136c.797-5.57 2.145-11.187 1.35-16.757s-4.422-11.237-9.952-12.273c-3.147-.59-6.38.39-9.302 1.7-13.244 5.937-22.492 18.48-28.27 31.794-5.776 13.315-8.636 27.677-12.85 41.566a220.848 220.848 0 01-46.903 83.184c-13.117 14.592-28.403 27.764-37.771 44.925-6.697 18.616-11.586 37.732-10.63 57.34 1.004 20.56 8.42 40.307 10.54 60.781.448 4.322.373 9.367-2.983 12.126-5.333 4.385-12.93-.715-18.438-4.878a69.925 69.925 0 00-16.064-9.048 43.473 43.473 0 011.698 13.532 78.234 78.234 0 01-32.24 60.14 98.897 98.897 0 0011.99-46.652c-12.16 26.625-35.016 46.79-58.823 63.82-22.605 16.17-46.788 30.416-67.288 49.126-14.8 23.683-28.448 48.031-38.232 74.13-7.768 20.72-12.943 42.798-14.07 64.865a84.563 84.563 0 005.46 15.557c2.545 5.465 6.463 11.213 12.432 12.065 6.949.992 12.707-5.028 17.125-10.484l23.98-29.611a245.722 245.722 0 00-11.14 55.903c-1.504 18.692-1.146 38.552-10.797 54.63-13.192 21.975-42.764 32.605-50.031 57.184 1.825-11.065 8.064-20.517 15.044-29.507-7.688 6.592-14.876 13.507-18.773 22.676a112.675 112.675 0 0114.463-32.322c5.46-8.356 12.225-16.426 13.809-26.281 1.977-12.3-4.885-24.683-14.45-32.666s-21.522-12.409-33.222-16.689c-4.808-1.758-10.064-3.533-14.933-1.95-6.086 1.977-9.372 8.408-11.862 14.302-13.496 31.944-23.94 67.84-51.6 88.757 12.395-30.745 21.712-56.493 27.669-82.999 2.676-11.907 5.026-24.636 12.559-34.04 12.616-35.586 30.697-70.524 31.24-108.032a190.19 190.19 0 01-19.362 50.938 136.59 136.59 0 008.602-51.014c-.193-7.999-1.26-16.424-6.087-22.804-9-11.895-27.98-11.669-40.5-3.561-6.806 4.407-12.153 10.46-16.765 17.17-8.223 19.33-12.667 40.134-17.632 60.603-8.107 33.419-17.97 66.823-35.174 96.598-9.36 16.202-23.09 32.516-41.727 34.183-6.18.552-12.393-.597-18.594-.397-6.2.2-12.875 2.117-16.433 7.2-2.49 3.555-3.057 8.067-3.55 12.38-1.06 9.24-2.01 19.116 2.26 27.379 6.626 12.813 22.707 16.695 34.779 24.592a54.589 54.589 0 0124.115 40.25c-5.244-8.316-13.355-14.252-22.362-18.428-1.832 20.842-3.28 39.611-4.726 58.377-.415 5.379-.672 11.315 2.638 15.574 7.174 9.23 21.544 2.303 31.75-3.395a98.533 98.533 0 0155.694-12.082c23.161 1.901 46.582 11.975 68.89 5.462 19.4-5.665 33.104-22.604 44.76-39.114 28.071-39.757 52.084-82.853 66.182-129.434 10.964-36.225 15.997-74.595 29.528-109.668a164.67 164.67 0 0114.435-31.806c16.099-27.048 42.217-49.2 73.081-55.376zm118.36-270.437c14.755-23.169 32.86-44.787 42.484-70.39 1.077-3.699 1.996-7.449 2.712-11.264 4.02-21.405 1.592-43.716 6.499-64.935 1.424-6.16 4.515-13.156 10.736-14.282 9.193-1.663 14.306 10.195 15.665 19.438q1.956 13.31 3.163 26.716c3.254 15.773 4.54 32.11 5.75 48.208.894 11.901 1.548 24.477.618 36.602a98.007 98.007 0 01-1.15 18.04 169.085 169.085 0 0012.008-34.135c9.305 27.368 1.964 59.688-18.252 80.35-13.174 13.463-31.266 22.337-41.109 38.397-7.895 12.884-11.508 31.043-25.908 35.622-15.237 4.845-29.846-10.654-33.885-26.124-7.352-28.159 5.036-57.696 20.669-82.243zM520.333 881.224a5.456 5.456 0 01-1.21-2.66 50.74 50.74 0 00-2.691 4.9c-3.295 6.951-5.76 15.768-13.099 18.073-4.82 1.514-10.032-.53-15.066-.094-8.027.696-14.031 7.346-20.993 11.402-5.514 3.212-11.93 4.858-24.694 6.175 16.665-8.882 28.911-23.013 40.36-38.231a311.998 311.998 0 0019.418-39.039c3.078-7.455 5.968-15.2 11.264-21.284s13.703-10.228 21.466-8.038c9.91 2.797 14.71 14.878 12.956 25.026s-8.271 18.728-14.586 26.863l-13.125 16.907z" fill="#e8a238"/><path d="M457.446 628.714c12.52-8.108 31.5-8.334 40.5 3.561 4.828 6.38 5.894 14.805 6.087 22.804a136.59 136.59 0 01-8.602 51.014 190.19 190.19 0 0019.361-50.938c-.542 37.508-18.623 72.446-31.239 108.031a34.396 34.396 0 011.959-2.262c8.343-8.74 21.153-12.27 33.195-11.27 9.105.757 17.826 3.846 25.983 8.051a68.53 68.53 0 0110.68-39.163 84.732 84.732 0 002.45 20.12c1.127-22.067 6.302-44.146 14.07-64.866 9.784-26.098 23.431-50.446 38.232-74.13-1.09.995-2.176 1.993-3.245 3.014-19.363 18.507-35.053 42.696-37.645 69.1-.194 2.469-.338 4.938-.384 7.403.007-2.486.144-4.953.384-7.404 1.959-24.864 11.307-49.809 26.07-72.051a47.213 47.213 0 00-11.632 9.043c-7.47 8.354-10.128 19.808-12.96 30.65-7.69 29.442-18.852 58.593-38.03 82.218a379.29 379.29 0 0021.973-77.968c1.75-10.336 3.068-20.92 1.42-31.273s-6.625-20.572-15.264-26.51a39.553 39.553 0 00-11.577-5.213 143.636 143.636 0 00-15.937 1.491c.34-.308.694-.597 1.043-.895a166.23 166.23 0 00-25.678 7.408q2.117.786 4.237 1.785c-22.196 7.999-38.788 27.286-49.09 48.512a152.522 152.522 0 00-3.126 6.907c4.612-6.709 9.959-12.762 16.765-17.169zM516.405 868.65c-1.501-.562-3.16.093-4.613.769-13.523 6.283-25.854 15.12-36.305 23.418q3.864-5.938 7.453-12.048c-11.449 15.218-23.695 29.35-40.36 38.23 12.764-1.316 19.18-2.962 24.694-6.174 6.962-4.056 12.966-10.706 20.993-11.402 5.034-.437 10.246 1.608 15.066.094 7.34-2.305 9.804-11.122 13.099-18.074a50.74 50.74 0 012.69-4.899c-.74-3.717.7-8.637-2.717-9.915zM673.416 319.107c13.831 7.42 20.203 24.76 18.316 40.342s-10.592 29.543-20.72 41.533-21.869 22.58-31.547 34.935a136.5 136.5 0 00-23.395 45.412 146.115 146.115 0 0146.992-50.882 126.932 126.932 0 00-32.505 43.731c-8.533 19.003-12.391 40.136-23.397 57.822a82.699 82.699 0 01-45.76 35.093c-3.108.942-6.434 1.827-9.562 2.991 10.895 1.367 21.585 5.865 32.438 4.315 11.015-1.574 20.342-9.285 26.749-18.382s10.406-19.621 14.957-29.775c12.618-28.15 30.651-54.906 56.638-71.53a99.294 99.294 0 0129.063-12.555c14.124-23.845 29.51-46.94 45.102-69.863l.29-.424a59.833 59.833 0 01-2.2-17.24c.462-18.584 10.092-34.333 21.624-49.415a89.575 89.575 0 01-26.453-3.27c-14.072-3.964-27.203-11.328-41.67-13.431-17.463-2.538-35.305 2.925-50.657 11.622a140.178 140.178 0 00-31.759 24.948c14.304-8.761 32.732-13.875 47.456-5.977z" fill="#994e08"/><path d="M544.69 757.705a114.89 114.89 0 017.71 4.375c12.695 7.84 24.354 18.022 31.382 31.183s8.873 29.621 2.393 43.061c-5.588 11.59-16.352 19.562-26.282 28.075-6.98 8.99-13.22 18.442-15.044 29.507 7.267-24.579 36.84-35.209 50.031-57.184 9.65-16.078 9.293-35.938 10.797-54.63a245.722 245.722 0 0111.14-55.903l-23.98 29.611c-4.418 5.456-10.176 11.476-17.125 10.484-5.969-.852-9.887-6.6-12.432-12.065a85.095 85.095 0 01-7.91-35.677 68.53 68.53 0 00-10.68 39.163zM586.633 1006.52c13.8-16.538 21.318-37.259 29.166-57.316s16.688-40.5 32.301-55.337a139.855 139.855 0 00-15.078 56.355 130.621 130.621 0 0163.708-69.983c7.867-3.871 16.126-6.945 24.247-10.272q10.403-12.405 21.378-24.314c10.051-10.864 20.63-21.624 27.178-34.897a82.582 82.582 0 006.145-17.487 157.659 157.659 0 00.099-21.173 114.617 114.617 0 01-19.037 28.097c-17.55 19.22-40.05 33.086-62.199 46.755s-44.589 27.67-61.931 47.077c-16.821 18.822-28.209 42.003-40.309 64.44q-1.611 3.65-3.286 7.275c-12.594 27.218-30.982 55.383-58.9 64.669 21.032 4.353 42.75-7.39 56.518-23.89zM711.683 442.157c19.852-5.01 41.08-3.696 58.814 6.228-6.806.845-13.37 1.676-19.692 2.66a31.064 31.064 0 013.98 8.656 69.925 69.925 0 0116.064 9.048c5.507 4.163 13.105 9.263 18.438 4.878 3.356-2.76 3.43-7.804 2.983-12.126-2.12-20.474-9.536-40.222-10.54-60.781-.956-19.608 3.933-38.724 10.63-57.34-.406.744-.818 1.483-1.2 2.242-10.705 21.216-10.88 45.996-10.826 69.76-9.375-13.511-19.03-27.935-23.26-43.512l-.29.424c-15.59 22.923-30.977 46.018-45.101 69.863zM569.232 671.78a78.022 78.022 0 00-.384 7.403c.046-2.465.19-4.934.384-7.404z" fill="#994e08"/><path d="M736.811 453.645c-6.437 2.852-12.658 6.396-16.2 12.342-1.88 3.157-2.841 6.758-4.054 10.226a62.295 62.295 0 01-15.633 24.757 129.18 129.18 0 01-8.216 13.342 90.214 90.214 0 01-22.832 31.004c-8.457 7.411-18.213 13.158-27.906 18.86l-2.343 1.378-2.417 2.575c-7.381 7.866-14.863 15.817-23.942 21.642-5.73 3.676-12.094 6.52-17.966 9.957-14.763 22.242-24.111 47.187-26.07 72.051 2.592-26.403 18.282-50.592 37.646-69.099a192.454 192.454 0 013.245-3.013c20.499-18.71 44.682-32.956 67.287-49.126 23.807-17.03 46.663-37.195 58.824-63.82a98.897 98.897 0 01-11.992 46.653 78.234 78.234 0 0032.241-60.141 43.473 43.473 0 00-1.698-13.532 31.064 31.064 0 00-3.98-8.657c-4.812.748-9.48 1.59-13.994 2.6zM860.17 466.712c14.4-4.58 18.014-22.738 25.91-35.622 9.842-16.06 27.934-24.934 41.108-38.398 20.216-20.661 27.557-52.981 18.252-80.35a169.085 169.085 0 01-12.008 34.135c-3.934 25.214-17.46 49.028-37.877 64.43-8.446 6.372-19.032 11.537-29.324 9.086-12.56-2.99-20.17-16.774-20.2-29.685s5.782-25.055 11.885-36.433c11.53-21.494 24.757-42.669 31.523-65.92-9.624 25.603-27.729 47.221-42.484 70.39-15.633 24.547-28.021 54.084-20.669 82.243 4.04 15.47 18.648 30.97 33.885 26.124z" fill="#994e08"/><path d="M910.538 247.076a157.493 157.493 0 01-13.556 124.522c1.902 3.378 7.043.504 9.392-2.58 11.078-14.544 18.912-31.546 26.74-54.553a92.661 92.661 0 011.468 13.973c.93-12.125.276-24.701-.618-36.602-1.21-16.098-2.496-32.435-5.75-48.208q1.165 12.91 1.637 25.871a30.041 30.041 0 00-19.313-22.423zM904.509 497.576q-.63-2.337-1.147-4.692a10.704 10.704 0 00.205 2.03 11.649 11.649 0 00.942 2.662z" fill="#994e08"/><path d="M742.355 845.653q-10.995 11.884-21.378 24.314A664.888 664.888 0 00678.9 925.82a209.55 209.55 0 01102.252-47.94c32.668-5.402 66.75-3.029 98.245-13.252 172.646-56.045 190.954-305.316 45.626-408.346-10.586 13.006-18.305 28.237-18.521 44.55.535.743 1.092 1.472 1.641 2.194 26.057 34.29 35.42 78.32 39.977 121.144 1.74 16.36 2.886 32.869 1.4 49.253a156.001 156.001 0 01-53.732 103.586c-11.052 9.389-24.296 17.477-38.797 17.644-14.501.168-29.828-10.158-30.823-24.626-.447-6.5 1.905-12.816 3.677-19.087a112.146 112.146 0 00-9.881-84.15 139.125 139.125 0 01-10.183 64.238 89.396 89.396 0 00-7.054-65.694c-9.724-18.227-26.802-33.2-47.094-37.075a70.682 70.682 0 00-27.038.523c-30.864 6.176-56.982 28.328-73.08 55.376a164.67 164.67 0 00-14.436 31.806 198.91 198.91 0 019.556-21.197c8.998-17.074 21.609-33.245 39.25-41.076 28.058-12.458 62.925.32 82.034 24.347s24.52 56.603 21.88 87.19c-2 23.171-8.709 46.832-24.306 64.085a189.938 189.938 0 006.185-36.045 82.582 82.582 0 01-6.145 17.488c-6.548 13.273-17.127 24.033-27.178 34.897z" fill="#994e08"/><path d="M721.35 1133.186a422.356 422.356 0 00-11.978 113.031 622.111 622.111 0 01143.372-238.03 371.356 371.356 0 00-7.042 115.001 312.165 312.165 0 0158.817-81.906c61.788-61.794 149.09-97.323 198.772-169.211 41.658-60.277 50.319-137.31 48.938-210.568-1.594-84.514-17.268-174.043-73.826-236.863a292.801 292.801 0 01129.624 124.637c-19.005-48.082-40.91-95.69-73.142-136.114-30.406-38.133-70.967-69.695-117.809-82.673-2.066 23.932-11.314 47.288-26.863 65.626-8.386 9.89-18.301 18.237-28.393 26.424 193.758 180.1 98.11 350.39 75.127 389.295C931.67 990.042 770.309 877.286 677.179 983.74c-36.51 41.734-16.543 118.552-51.046 151.452a51.291 51.291 0 01-26.677 13.512 265.72 265.72 0 0070.095 144.763 243.896 243.896 0 0151.8-160.28z" fill="#994e08"/><path d="M650.51 839.684c22.607-14.22 50.585-20.62 68.91-40.049 10.92-11.578 17.243-26.668 22.669-41.63 5.548-15.303 10.46-31.658 7.424-47.65a55.516 55.516 0 00-2.041-7.602c-.252-.254-.509-.505-.765-.756-23.49 44.293-56.05 83.383-88.29 121.962 19.896-33.655 39.82-67.361 56.736-102.608 4.713-9.82 9.245-20.388 10.844-31.032-11.503-1.942-23.526 3.06-32.243 10.932-9.166 8.278-15.267 19.36-20.684 30.458-19.757 40.48-32.567 83.79-45.725 126.974a124.33 124.33 0 0123.165-18.999zM705.509 485.594c.408-3.632-.04-8.008-3.212-9.823-2.55-1.46-5.777-.591-8.464.599-.846.375-1.674.789-2.493 1.22-10.296 10.542-18.278 23.574-25.325 36.649-3.145 5.836-6.183 11.765-9.304 17.643v.062c.053 1.655.285 3.466 1.491 4.601 1.485 1.398 3.843 1.22 5.804.656 5.066-1.457 9.363-4.794 13.307-8.291a131.947 131.947 0 0016.85-18.031 88.578 88.578 0 01-1.455 3.433 129.18 129.18 0 008.216-13.342c-.203.19-.392.398-.598.585a41.926 41.926 0 005.183-15.96z" fill="#fff"/><path d="M445.67 482.702c21.217-36.95 30.835-79.31 47.948-118.33s45.085-77.112 86.057-88.808a103.191 103.191 0 00-59.762 14.287c41.311-35.17 98.643-50.487 152.044-41.325q3.115-2.05 6.156-4.21-3.222-3.24-6.68-6.231a143.18 143.18 0 00-33.285-5.322 191.86 191.86 0 0119.749 6.566c-36.404 1.655-73.085 6.436-107.045 19.654s-65.222 35.482-84.389 66.476c-14.868 24.043-21.842 52.038-27.685 79.697s-10.863 55.807-22.427 81.604c-11.564 25.795-30.719 49.504-57 59.917 2.275.501 4.559.905 6.846 1.228 33.387-7.473 61.954-34.692 79.474-65.203z" fill="#ef1ab3"/><path d="M545.445 195.467a270.918 270.918 0 0151.05-8.536 375.19 375.19 0 00-47.986-8.295q-6.768 1.314-13.52 2.698c-38.38 7.872-76.413 17.392-114.118 28.039-13.835 3.906-27.647 7.956-41.585 11.459a230.414 230.414 0 00-23.722 16.545c54.433-18.567 115.449-16.72 168.878 4.42a163.126 163.126 0 0116.13-6.728 150.626 150.626 0 0128.88-7.056c-34.042-15.533-72.47-18.841-109.946-18.903a380.71 380.71 0 0185.94-13.643zM678.05 162.352a300.71 300.71 0 0147.937 8.754c-14.975-6.738-31.369-8.772-47.937-8.754zM1297.474 856.337a76.067 76.067 0 01-2.99-4.313 480.818 480.818 0 01-50.037 104.574c31.999-22.485 52.784-61.134 53.027-100.26zM1335.76 465.868c-18.638-3.386-33.55-17.368-45.126-32.361-30.768-39.847-45.379-89.592-70.056-133.472a325.87 325.87 0 00-42.643-59.159c-22.049-24.303-48.625-45.693-80.007-55.284-28.674-8.764-59.548-7.15-89.1-2.084-10.678 1.831-21.974 4.57-30.782 10.447q1.767 9.316 4.322 18.457c67.033-8.58 137.16 8.865 192.166 48.182l-46.987-12.841c32.627 12.014 58.288 40.682 75.98 71.358 8.528 14.788 15.722 30.282 22.743 45.865.743.544 1.479 1.097 2.233 1.627-.58-.163-1.153-.346-1.731-.515 9.724 21.613 19.164 43.37 31.394 63.637a120.31 120.31 0 002.774 4.4 148.222 148.222 0 0014.196 10.087c-2.391-.33-4.76-.75-7.11-1.236a28.047 28.047 0 009.965 6.59 127.913 127.913 0 01-40.593-12.765q10.172 14.9 19.195 30.55c25.548 8.402 54.005 8.11 79.167-1.483zM1341.443 694.104c.865 22.848-1.725 45.453-9.37 66.895-3.89 18.836-7.522 37.687-6.716 56.82a70.173 70.173 0 01-14.988-24.867q-2.839 14.067-6.511 27.951a86.057 86.057 0 0041.243 32.07c-13.92-39.97 7.64-82.447 16.737-123.782 13.828-62.828-2.074-129.365-31.944-186.342-8.019-15.296-17.627-30.603-30.881-41.295a89.047 89.047 0 01-13.03-1.41c38.412 56.533 58.028 125.66 55.46 193.96z" fill="#696969"/><path d="M465.181 459.523c12.623-49.734 34.286-98.056 69.011-135.831 31.127-33.86 73.547-58.553 118.95-64.173a203.738 203.738 0 0018.815-10.993c-53.4-9.162-110.733 6.155-152.044 41.325a103.191 103.191 0 0159.762-14.287c-40.972 11.696-68.943 49.787-86.056 88.808s-26.731 81.38-47.948 118.33c-17.52 30.51-46.087 57.73-79.474 65.203 36.257 5.124 73.624-11.633 100.654-36.803 28.737-26.758 47.883-62.003 66.046-96.814s36.25-70.43 63.499-98.7q4.374-4.539 9.038-8.785a251.996 251.996 0 00-33.312 22.508c-44.103 35.214-76.798 82.498-106.94 130.212z" fill="#48294f"/><path d="M620.03 186.762c31.622 1.642 63.38 11.612 87.905 31.6.06-.061.118-.123.177-.185a132.154 132.154 0 00-46.49-33.732 96.582 96.582 0 0156.636 22.075q2.252-2.803 4.408-5.683c5.453-7.325 10.462-16.152 12.11-24.954a65.674 65.674 0 00-8.16-4.498c-.208-.096-.42-.185-.629-.279a300.71 300.71 0 00-47.937-8.754c-9.203.01-18.46.648-27.556 1.466a1008.937 1008.937 0 00-101.985 14.818 375.19 375.19 0 0147.987 8.295 205.115 205.115 0 0123.534-.17zM613.353 208.391c-28.619-7.69-58.662-8.392-88.263-7.012q10.078-3.23 20.355-5.912a380.71 380.71 0 00-85.939 13.643c37.477.062 75.904 3.37 109.945 18.903a169.748 169.748 0 0168.697 4.75 143.18 143.18 0 0133.285 5.322c-16.512-14.206-36.93-24.01-58.08-29.694zM1260.94 434.125a120.31 120.31 0 01-2.774-4.4c-12.23-20.266-21.67-42.024-31.394-63.637a204.357 204.357 0 01-49.942-22.222c29.798 27.74 52.265 64.831 84.11 90.259z" fill="#303030"/><path d="M1043.815 235.373c24.116 3.772 48.4 9.266 69.64 21.294 45.556 25.795 70.614 77.44 112.815 108.31-7.02-15.584-14.215-31.078-22.744-45.866-17.691-30.676-43.352-59.344-75.98-71.358l46.988 12.84c-55.006-39.316-125.133-56.762-192.166-48.18a216.857 216.857 0 009.004 25.679c15.621-6.798 35.014-5.446 52.443-2.72z" fill="#48294f"/><path d="M1268.025 442.976a130.15 130.15 0 01-35.694-13.436q2.564 3.609 5.067 7.26a127.913 127.913 0 0040.593 12.766 28.047 28.047 0 01-9.966-6.59zM1341.443 694.104c2.568-68.3-17.048-137.427-55.46-193.96a89.651 89.651 0 01-13.926-3.713q4.578 9.37 8.746 18.93c18.779 25.3 31.575 55.289 41.672 85.377 10.054 29.957 17.775 61.888 18.968 93.366zM1332.073 761a148.641 148.641 0 01-2.912 7.58 391.644 391.644 0 00-9.647-82.969 468.586 468.586 0 01-9.145 107.341 70.173 70.173 0 0014.988 24.868c-.806-19.134 2.826-37.985 6.716-56.82z" fill="#303030"/><path d="M618.628 124.064Q512.891 154.19 404.6 174.126c52.046-12.091 101.366-33.819 152.907-47.91a539.25 539.25 0 01152.282-18.959c25.244.484 50.895 2.705 75.437-3.223 7.422-1.792 16.037-6.04 16.268-13.671.144-4.774-3.25-8.905-6.863-12.028a53.783 53.783 0 00-37.098-12.892 179.571 179.571 0 0185.85 3.09c16.15 4.621 32.384 12.117 42.222 25.733a40.967 40.967 0 016.569 14.556 79.431 79.431 0 0115.803-9.719c-35.968-159.68-415.28 13.525-606.671 79.857-30.61 10.609-88.254 20.322-120.392 13.59l-.18.04c54.633 16.694 116.477 12.625 167.242 2.144 59.998-12.388 112.216-24.256 167.86-36.353q-3.093.2-6.188.36a453.392 453.392 0 00108.981-34.677zM698.387 259.916c5.019.58 10.03 1.275 15.04 2.034 12.025-7.817 23.905-15.813 33.641-26.264a72.554 72.554 0 0014.945-23.964 53.293 53.293 0 00-4.259-10.943 230.14 230.14 0 01-59.367 59.137zM324.922 349.799l-117.819 41.928c-28.14 10.014-56.754 20.128-86.575 21.844-7.356.423-15.069.204-22.05-1.882 19.945 8.654 41.684 11.662 63.77 10.978 18.418-3.447 36.446-10.33 54.04-17.096 53.797-20.69 107.92-41.048 163.98-54.438a292.988 292.988 0 00-68.346 7.808 984.116 984.116 0 01121.903-32.618 141.865 141.865 0 015.896-12.013c-6.438 1.74-12.95 3.276-19.342 4.887-32.414 8.17-63.964 19.394-95.457 30.602z" fill="#fff9b5"/><path d="M380.269 351.133c-56.061 13.39-110.185 33.748-163.981 54.438-17.594 6.767-35.622 13.649-54.04 17.096 24.243-.75 48.897-5.924 72.042-12.947 47.901-14.537 94.291-36.331 144.154-40.755 13.978-1.24 28.301-1.046 41.822 2.524 3.226-15.553 7.34-30.883 13.559-45.166a984.116 984.116 0 00-121.903 32.618 292.988 292.988 0 0168.347-7.808zM713.426 261.95q3.119.472 6.235.968c4.146.534 8.285 1.23 12.418 2.011 6.494 1.054 12.99 2.082 19.497 2.95 17.424 2.321 35.49 3.398 52.785.893 30.068-46.52 37.546-106.785 74.866-147.86a104.796 104.796 0 0112.946-12.09 40.967 40.967 0 00-6.57-14.556c-9.837-13.616-26.072-21.112-42.222-25.733a179.571 179.571 0 00-85.849-3.09 53.783 53.783 0 0137.098 12.892c3.614 3.123 7.007 7.254 6.863 12.028-.231 7.632-8.846 11.879-16.267 13.671-24.543 5.928-50.194 3.707-75.437 3.223a539.25 539.25 0 00-152.283 18.96c-51.541 14.09-100.86 35.818-152.907 47.91q108.13-19.9 214.03-50.063a453.392 453.392 0 01-108.982 34.676q3.095-.156 6.188-.359c21.615-4.699 43.745-9.432 67.051-14.244 27.874-5.755 55.984-11.535 84.446-11.517a223.418 223.418 0 0172.35 12.395c15.143 5.211 30.481 12.532 39.655 25.66 13.152 18.82 8.848 47.629-16.946 62.501a43.469 43.469 0 00-.378-21.454 72.554 72.554 0 01-14.945 23.964c-9.736 10.45-21.616 18.447-33.642 26.264z" fill="#bf9747"/><path d="M711.683 442.157a99.294 99.294 0 00-29.063 12.555c-25.987 16.624-44.02 43.38-56.638 71.53-4.55 10.154-8.55 20.678-14.957 29.775s-15.734 16.808-26.75 18.382c-10.852 1.55-21.542-2.948-32.437-4.315a52.648 52.648 0 00-2.058-.22 48.873 48.873 0 00-35.442 11.407c-.349.298-.704.587-1.043.895a143.636 143.636 0 0115.937-1.49 39.553 39.553 0 0111.577 5.212c8.639 5.938 13.614 16.157 15.263 26.51s.33 20.937-1.419 31.273a379.29 379.29 0 01-21.974 77.968c19.179-23.625 30.342-52.776 38.031-82.217 2.832-10.843 5.49-22.297 12.96-30.65a47.213 47.213 0 0111.632-9.044c5.872-3.437 12.237-6.28 17.966-9.957 9.08-5.825 16.56-13.776 23.942-21.642l2.416-2.575 2.344-1.379c9.692-5.7 19.45-11.448 27.906-18.859a90.214 90.214 0 0022.832-31.004 88.578 88.578 0 001.455-3.433 131.947 131.947 0 01-16.85 18.03c-3.944 3.498-8.241 6.835-13.307 8.292-1.96.564-4.319.742-5.804-.656-1.206-1.135-1.438-2.946-1.49-4.6-.002-.022 0-.042-.001-.063 3.121-5.878 6.16-11.807 9.304-17.643 7.047-13.075 15.03-26.107 25.325-36.648a40.566 40.566 0 012.493-1.221c2.687-1.19 5.914-2.06 8.464-.6 3.172 1.816 3.62 6.192 3.212 9.824a41.926 41.926 0 01-5.183 15.96c.206-.186.395-.393.598-.584a62.295 62.295 0 0015.633-24.757c1.213-3.468 2.175-7.069 4.055-10.226 3.54-5.946 9.762-9.49 16.2-12.342 4.513-1.01 9.181-1.853 13.993-2.6 6.322-.984 12.886-1.815 19.692-2.66-17.735-9.924-38.962-11.238-58.814-6.228zM552.4 762.08a114.89 114.89 0 00-7.71-4.375c-8.157-4.205-16.878-7.294-25.983-8.05-12.042-1.001-24.852 2.53-33.195 11.27a34.396 34.396 0 00-1.959 2.261c-7.533 9.405-9.883 22.135-12.559 34.041-5.957 26.506-15.274 52.254-27.668 82.999 27.659-20.917 38.103-56.813 51.6-88.756 2.49-5.895 5.775-12.326 11.86-14.303 4.87-1.582 10.126.192 14.934 1.95 11.7 4.28 23.658 8.706 33.222 16.689s16.427 20.365 14.45 32.666c-1.584 9.855-8.348 17.925-13.809 26.28a112.675 112.675 0 00-14.463 32.323c3.897-9.169 11.085-16.084 18.773-22.676 9.93-8.512 20.694-16.485 26.282-28.075 6.48-13.44 4.635-29.9-2.393-43.06S565.095 769.92 552.4 762.08z" fill="#48294f"/><path d="M535.087 812.428c-7.762-2.19-16.17 1.955-21.466 8.038s-8.185 13.829-11.263 21.284a311.998 311.998 0 01-19.419 39.039q-3.59 6.107-7.452 12.048c10.45-8.298 22.782-17.135 36.305-23.418 1.454-.676 3.112-1.331 4.613-.77 3.417 1.278 1.976 6.198 2.717 9.915a5.456 5.456 0 001.211 2.66l13.125-16.907c6.314-8.135 12.832-16.715 14.586-26.863s-3.045-22.229-12.957-25.026zM866.231 419.993c10.292 2.45 20.878-2.714 29.324-9.086 20.417-15.402 33.943-39.216 37.877-64.43a98.007 98.007 0 001.15-18.039 92.661 92.661 0 00-1.469-13.973c-7.827 23.007-15.66 40.009-26.739 54.554-2.349 3.083-7.49 5.957-9.392 2.58a157.493 157.493 0 0013.556-124.523 30.041 30.041 0 0119.313 22.423q-.468-12.955-1.637-25.871-1.21-13.399-3.163-26.716c-1.359-9.243-6.472-21.101-15.665-19.438-6.22 1.126-9.312 8.123-10.736 14.282-4.907 21.22-2.48 43.53-6.499 64.935a118.703 118.703 0 01-2.712 11.265c-6.766 23.25-19.993 44.425-31.523 65.92-6.103 11.377-11.914 23.52-11.884 36.432s7.639 26.694 20.199 29.685z" fill="#48294f"/><path d="M1376.918 797.973c1.61-30.383 9.493-60.075 13.042-90.292a319.7 319.7 0 00-24.113-163.665c-7.588-17.484-17.959-35.27-32.711-46.596 30.496-8.363 57.815-28.724 73.429-56.307a86.896 86.896 0 01-71.52-10.458c-28.084-18.433-42.65-51.109-56.429-81.745-7.644-16.995-15.493-33.914-24.372-50.298-29.267-54.005-70.85-102.78-124.897-131.967-47.002-25.382-104.091-34.404-155.049-19.822.24-9.696.651-19.592-2.86-28.575a35.325 35.325 0 00-11.016-14.68c-.366-20.352-14.438-41.008-29.646-56.251-96.35-96.577-311.407-23.846-440.598 28.8-62.081 25.3-123.018 53.963-187.344 72.84s-133.229 27.655-198.483 12.287c14.427 33.248 46.497 53.806 80.455 63.676s69.94 10.122 105.255 8.291c8.624-.447 17.248-1.017 25.852-1.787a100.03 100.03 0 00-3.616 2.76c-22.87 18.39-36.165 46-46.771 73.364 34.65-26.282 74.521-46.28 117.152-54.885 37.223-7.514 76.597-6.032 112.434 6.242q-4.456 3.032-8.804 6.207-1.73 1.262-3.443 2.55c-29.356-1.182-59.328 9.235-87.368 19.817-70.385 26.562-140.243 54.741-212.106 76.993-29.975 9.282-60.51 17.565-91.806 19.842s-63.631-1.745-91.585-16c12.091 35.35 49.458 54.364 83.527 69.698 14.208 6.394 28.514 12.798 43.618 16.62 42.119 10.658 86.646.435 127.764-13.597s81.453-32.016 124.566-37.383c8.911-1.11 18.166-1.637 26.68 1.217a29.995 29.995 0 017.47 3.738c-5.525 32.303-12.386 65.194-31.521 91.577-20.808 28.688-60.876 46.784-92.696 31.181 24.563 28.184 61.568 43.626 99.05 44.988a63.257 63.257 0 0012.769 19.933c7.215 7.747 15.952 13.9 25.113 19.245a147.137 147.137 0 00-7.25 15.564c-19.456 47.564-28.691 99.028-50.677 145.477-3.12 6.591-6.622 13.236-12.146 17.995-19.055 16.417-51.875 3.44-71.56 19.096-13.21 10.506-15.067 29.7-14.232 46.56a264.137 264.137 0 003.652 32.582c1.196 6.814 2.939 14.077 8.135 18.643 3.386 2.976 7.83 4.413 12.19 5.556 3.326.872 6.682 1.617 10.05 2.306l-2.32 37.407c-1.62 26.127-1.676 56.244 18.035 73.47 6.9 6.029 15.259 9.493 24.202 11.132a54.42 54.42 0 00.913 16.403c2.848 12.709 13.382 24.707 26.406 24.676 5.758-.014 11.1-2.268 16.275-4.966 11.941 28.476 3.788 69.008 30.803 83.592 25.723 13.887 54.477-11.612 83.166-17.219 15.082-2.947 31.634-.372 48.201 2.288-1.506 54.289 20.754 107.494 52.75 151.584 33.311 45.903 76.72 83.355 119.9 120.128 8.176-81.968 68.575-149.55 135.261-197.909 65.435-47.451 139.642-82.646 201.433-134.667 1.182-.995 2.368-1.983 3.54-2.99q2.538-2.18 5.043-4.42c-.054.33-.103.66-.156.99a266.699 266.699 0 00-.13 80.657c33.029-50.593 80.958-89.153 122.326-133.287 24.53.086 48.684-14.655 68.585-30.456 21.06-16.72 41.008-35.62 54.227-59.038 9.435-16.714 15.127-36.055 14.687-55.087a114.58 114.58 0 0015.347 6.849c19.048 6.881 42.318 8.407 57.761-4.696-19.908-23.008-25.45-55.395-23.84-85.778zm-368.09-614.465c29.552-5.066 60.426-6.68 89.1 2.084 31.382 9.59 57.958 30.98 80.007 55.284a325.87 325.87 0 0142.643 59.16c24.677 43.879 39.288 93.624 70.056 133.47 11.576 14.994 26.488 28.976 45.126 32.362-25.162 9.593-53.62 9.885-79.167 1.483q-9.018-15.632-19.195-30.55-2.496-3.657-5.067-7.261a130.15 130.15 0 0035.694 13.436c2.35.486 4.72.906 7.11 1.236a148.222 148.222 0 01-14.195-10.087c-31.845-25.428-54.312-62.518-84.11-90.259a204.357 204.357 0 0049.942 22.222c.578.169 1.151.352 1.731.515-.754-.53-1.49-1.083-2.233-1.627-42.2-30.87-67.26-82.514-112.815-108.31-21.24-12.027-45.524-17.52-69.64-21.293-17.43-2.727-36.822-4.08-52.443 2.719a216.857 216.857 0 01-9.004-25.68q-2.567-9.127-4.322-18.457c8.808-5.877 20.104-8.616 30.782-10.447zm-828.095 9.083c-.267-.082-.538-.156-.805-.239.32.072.66.13.985.199 32.138 6.73 89.782-2.982 120.392-13.59 191.392-66.333 570.703-239.539 606.67-79.858a79.431 79.431 0 00-15.802 9.719 104.796 104.796 0 00-12.946 12.09c-37.32 41.075-44.798 101.34-74.866 147.86-17.294 2.505-35.36 1.428-52.785-.894-6.507-.867-13.003-1.895-19.497-2.949-4.133-.781-8.272-1.477-12.418-2.01q-3.116-.497-6.235-.97a428.447 428.447 0 00-15.039-2.033 230.14 230.14 0 0059.367-59.137 53.293 53.293 0 014.259 10.943 43.469 43.469 0 01.378 21.454c25.794-14.872 30.098-43.68 16.946-62.502-9.174-13.127-24.512-20.448-39.656-25.659a223.418 223.418 0 00-72.35-12.395c-28.461-.018-56.57 5.762-84.445 11.517-23.306 4.812-45.437 9.545-67.051 14.244-55.644 12.097-107.862 23.965-167.86 36.353-50.765 10.48-112.61 14.55-167.242-2.143zm197.711 176.374c-49.863 4.424-96.253 26.218-144.154 40.755-23.145 7.023-47.799 12.197-72.041 12.947-22.088.684-43.826-2.324-63.77-10.978 6.98 2.086 14.692 2.305 22.049 1.882 29.82-1.716 58.434-11.83 86.575-21.844l117.82-41.928c31.492-11.208 63.042-22.433 95.456-30.602 6.392-1.61 12.904-3.147 19.342-4.887a141.865 141.865 0 00-5.896 12.013c-6.219 14.283-10.333 29.613-13.56 45.166-13.52-3.57-27.843-3.765-41.821-2.524zm-12.247 178.94a91.21 91.21 0 01-6.847-1.228c26.282-10.413 45.437-34.122 57.001-59.917 11.564-25.797 16.584-53.945 22.427-81.604s12.817-55.654 27.685-79.697c19.167-30.994 50.43-53.258 84.39-66.476s70.64-18 107.044-19.654a191.86 191.86 0 00-19.749-6.566 169.748 169.748 0 00-68.697-4.75 150.626 150.626 0 00-28.879 7.056 163.126 163.126 0 00-16.13 6.727c-53.43-21.139-114.445-22.986-168.878-4.419a230.414 230.414 0 0123.722-16.545c13.938-3.503 27.75-7.553 41.585-11.46 37.705-10.646 75.737-20.166 114.117-28.038q6.753-1.385 13.521-2.698a1008.937 1008.937 0 01101.985-14.818c9.096-.818 18.353-1.456 27.556-1.466 16.568-.018 32.962 2.016 47.937 8.754.21.094.42.183.63.279a65.674 65.674 0 018.159 4.498c-1.648 8.802-6.657 17.629-12.11 24.954q-2.148 2.885-4.408 5.683a96.582 96.582 0 00-56.635-22.075 132.154 132.154 0 0146.489 33.732l-.177.186c-24.524-19.99-56.283-29.959-87.905-31.601a205.115 205.115 0 00-23.534.169 270.918 270.918 0 00-51.05 8.536q-10.267 2.67-20.356 5.912c29.601-1.38 59.644-.679 88.263 7.012 21.15 5.684 41.568 15.488 58.08 29.694q3.465 2.98 6.68 6.232-3.038 2.162-6.156 4.209a203.738 203.738 0 01-18.816 10.993c-45.402 5.62-87.822 30.313-118.949 64.173-34.725 37.775-56.388 86.097-69.01 135.83 30.142-47.713 62.837-94.997 106.94-130.211a251.996 251.996 0 0133.312-22.508q-4.657 4.248-9.038 8.784c-27.25 28.271-45.336 63.889-63.5 98.7s-37.308 70.057-66.045 96.815c-27.03 25.17-64.397 41.927-100.654 36.803zm149.845 553.986c-30.153.807-71.21 31.583-85.924 14.106-3.118-3.704-3.799-8.818-4.353-13.628l-4.418-38.348a57.626 57.626 0 017.594-.784c11.893-.403 24.29 3.5 32.385 12.223-1.732-16.896-18.43-30.799-35.36-29.44-12.306.987-24.613 8.796-36.22 4.59a18.606 18.606 0 01-10.482-10.35q1.069-.216 2.128-.446c20.935-4.576 41.27-13.05 62.696-13.49 26.891-.554 53.807 11.63 80.053 5.749a61.571 61.571 0 005.974-1.664c27.918-9.287 46.306-37.451 58.9-64.67q1.677-3.624 3.286-7.275c12.1-22.436 23.488-45.617 40.309-64.44 17.342-19.406 39.783-33.407 61.931-47.076s44.65-27.536 62.2-46.755a114.617 114.617 0 0019.036-28.097 157.659 157.659 0 01-.1 21.172 189.938 189.938 0 01-6.184 36.045C785.09 812.06 791.8 788.4 793.8 765.227c2.64-30.586-2.77-63.161-21.88-87.189s-53.976-36.805-82.035-24.347c-17.64 7.831-30.25 24.002-39.25 41.076a198.91 198.91 0 00-9.555 21.197c-13.53 35.073-18.564 73.443-29.528 109.668-14.098 46.58-38.11 89.677-66.181 129.434-11.657 16.51-25.36 33.45-44.761 39.114-22.308 6.513-45.729-3.56-68.89-5.462a98.533 98.533 0 00-55.693 12.082c-10.207 5.698-24.577 12.624-31.75 3.395-3.311-4.26-3.054-10.195-2.639-15.574 1.447-18.766 2.894-37.535 4.726-58.377 9.007 4.176 17.118 10.112 22.362 18.428a54.589 54.589 0 00-24.115-40.25c-12.072-7.897-28.153-11.779-34.778-24.592-4.272-8.263-3.32-18.139-2.262-27.38.494-4.312 1.062-8.824 3.551-12.38 3.558-5.082 10.232-6.998 16.433-7.199 6.201-.2 12.414.95 18.594.397 18.636-1.667 32.367-17.981 41.727-34.183 17.203-29.775 27.067-63.18 35.174-96.598 4.965-20.469 9.409-41.274 17.632-60.604.988-2.323 2.02-4.63 3.126-6.907 10.302-21.226 26.894-40.513 49.09-48.512q-2.12-1.004-4.237-1.785c-16.705-6.202-33.124-2.414-45.627 6.978a86.193 86.193 0 01-13.259-13.027 33.163 33.163 0 01-5.684-9.313c47.905-10.17 89.432-43.18 114.774-85.099 15.33-25.359 25.1-53.598 36.668-80.88 12.57-29.648 28.34-59.355 50.428-82.254a140.178 140.178 0 0131.759-24.948c15.352-8.697 33.194-14.16 50.656-11.622 14.468 2.103 27.599 9.467 41.67 13.43a89.575 89.575 0 0026.454 3.271c-11.532 15.082-21.162 30.83-21.623 49.415a59.833 59.833 0 002.198 17.24c4.23 15.577 13.885 30 23.26 43.512-.054-23.764.12-48.544 10.825-69.76.383-.759.795-1.498 1.2-2.242 9.37-17.16 24.655-30.333 37.772-44.925a220.848 220.848 0 0046.903-83.184c4.214-13.889 7.074-28.25 12.85-41.566 5.778-13.315 15.026-25.857 28.27-31.794 2.922-1.31 6.155-2.29 9.302-1.7 5.53 1.036 9.159 6.703 9.953 12.273s-.554 11.188-1.35 16.757c-5.004 34.962 11.549 68.842 23.332 102.137s17.928 73.694-4.24 101.19c-6.063 7.52-13.833 13.447-20.735 20.206-26.218 25.676-38.825 64.338-31.054 100.11q.512 2.356 1.147 4.692a96.337 96.337 0 002.047 6.664 52.692 52.692 0 01-.054-3.408c.216-16.313 7.935-31.544 18.521-44.55a125.016 125.016 0 015.909-6.739c139.46 80.075 147.847 323.447 3.7 409.08-81.513 48.424-196.446 23.07-267.454 85.895-67.634 59.84-52.445 136.32-80.383 156.564-19.578 14.187-46.583.163-70.753.81zM725.997 690.32c-1.6 10.644-6.131 21.213-10.844 31.032-16.917 35.247-36.84 68.953-56.737 102.608 32.24-38.579 64.8-77.669 88.291-121.962.256.251.513.502.765.756a55.516 55.516 0 012.041 7.602c3.036 15.992-1.876 32.347-7.424 47.65-5.426 14.962-11.748 30.052-22.669 41.63-18.325 19.43-46.303 25.829-68.91 40.05a124.33 124.33 0 00-23.165 18.998c13.158-43.185 25.968-86.494 45.725-126.974 5.417-11.099 11.518-22.18 20.684-30.458 8.717-7.873 20.74-12.874 32.243-10.932zm432.618 317.001c-20.335 21.313-42.947 41.03-58.126 66.276l3.903-33.25c41.008-49.307 67.706-110.4 58.435-172.695-14.766 49.193-39.736 101.86-76.171 144.913-57.747 68.232-140.202 109.401-216.182 156.491-75.98 47.09-151.372 107.115-178.7 192.225-29.083-34.126-58.432-68.642-78.994-108.487-16.367-31.715-26.84-67.49-25.686-102.875a74.592 74.592 0 0012.362-1.214 51.291 51.291 0 0026.677-13.512c34.503-32.9 14.536-109.718 51.046-151.451 93.13-106.455 254.49 6.302 359.768-171.906 22.983-38.904 118.631-209.195-75.127-389.295 10.092-8.187 20.007-16.533 28.393-26.424 15.55-18.337 24.797-41.694 26.863-65.626a117.487 117.487 0 00-.456-24.673c128.077 47.314 228.045 164.103 257.746 297.787 31.614 142.295-15.126 298.255-115.75 403.716zm85.832-50.722a480.818 480.818 0 0050.037-104.574 76.067 76.067 0 002.99 4.314c-.243 39.126-21.028 77.775-53.027 100.26zm117.391-227.407c-9.097 41.336-30.656 83.812-16.737 123.782a86.057 86.057 0 01-41.243-32.07q3.673-13.876 6.511-27.95a468.586 468.586 0 009.145-107.342 391.644 391.644 0 019.647 82.97 148.641 148.641 0 002.912-7.581c7.645-21.443 10.235-44.048 9.37-66.896-1.193-31.478-8.914-63.408-18.968-93.366-10.097-30.088-22.893-60.078-41.672-85.376q-4.165-9.56-8.746-18.93a90.073 90.073 0 0026.956 5.122c13.254 10.692 22.862 25.999 30.88 41.295 29.87 56.977 45.773 123.514 31.945 186.342z" fill="#48294f"/></svg>